{
  "accessors": [
    {
      "bufferView": 2,
      "componentType": 5126,
      "count": 9261,
      "max": [
        67.09628295898438,
        159.30044555664063,
        51.92225646972656
      ],
      "min": [
        -65.9010009765625,
        62.33744812011719,
        -52.01987838745117
      ],
      "type": "VEC3"
    },
    {
      "bufferView": 2,
      "byteOffset": 111132,
      "componentType": 5126,
      "count": 9261,
      "max": [
        1.0,
        1.0,
        1.0
      ],
      "min": [
        -1.0,
        -1.0,
        -1.0
      ],
      "type": "VEC3"
    },
    {
      "bufferView": 3,
      "componentType": 5126,
      "count": 9261,
      "max": [
        1.0,
        1.0,
        1.0,
        1.0
      ],
      "min": [
        -1.0,
        -1.0,
        -1.0,
        -1.0
      ],
      "type": "VEC4"
    },
    {
      "bufferView": 1,
      "componentType": 5126,
      "count": 9261,
      "max": [
        0.9973499774932861,
        0.995166003704071
      ],
      "min": [
        0.0036269999109208584,
        0.0019990000873804092
      ],
      "type": "VEC2"
    },
    {
      "bufferView": 0,
      "componentType": 5125,
      "count": 28854,
      "type": "SCALAR"
    },
    {
      "bufferView": 2,
      "byteOffset": 222264,
      "componentType": 5126,
      "count": 6053,
      "max": [
        55.03114318847656,
        84.8699722290039,
        54.58647918701172
      ],
      "min": [
        -67.66426086425781,
        21.288684844970703,
        -54.750640869140625
      ],
      "type": "VEC3"
    },
    {
      "bufferView": 2,
      "byteOffset": 294900,
      "componentType": 5126,
      "count": 6053,
      "max": [
        1.0,
        1.0,
        1.0
      ],
      "min": [
        -1.0,
        -1.0,
        -1.0
      ],
      "type": "VEC3"
    },
    {
      "bufferView": 3,
      "byteOffset": 148176,
      "componentType": 5126,
      "count": 6053,
      "max": [
        1.0,
        1.0,
        1.0,
        1.0
      ],
      "min": [
        -1.0,
        -1.0,
        -1.0,
        -1.0
      ],
      "type": "VEC4"
    },
    {
      "bufferView": 1,
      "byteOffset": 74088,
      "componentType": 5126,
      "count": 6053,
      "max": [
        0.9984999895095825,
        0.9967389702796936
      ],
      "min": [
        0.003407000098377466,
        0.0034209999721497297
      ],
      "type": "VEC2"
    },
    {
      "bufferView": 0,
      "byteOffset": 115416,
      "componentType": 5125,
      "count": 20136,
      "type": "SCALAR"
    },
    {
      "bufferView": 2,
      "byteOffset": 367536,
      "componentType": 5126,
      "count": 844,
      "max": [
        26.104087829589844,
        109.69308471679688,
        51.537803649902344
      ],
      "min": [
        2.293550968170166,
        96.82760620117188,
        -51.64390182495117
      ],
      "type": "VEC3"
    },
    {
      "bufferView": 2,
      "byteOffset": 377664,
      "componentType": 5126,
      "count": 844,
      "max": [
        0.9777757525444031,
        0.9989548325538635,
        0.9994906783103943
      ],
      "min": [
        -0.9964935183525085,
        -0.939577579498291,
        -0.9994906187057495
      ],
      "type": "VEC3"
    },
    {
      "bufferView": 1,
      "byteOffset": 122512,
      "componentType": 5126,
      "count": 844,
      "max": [
        6.0,
        1.0
      ],
      "min": [
        -1.0,
        0.0
      ],
      "type": "VEC2"
    },
    {
      "bufferView": 0,
      "byteOffset": 195960,
      "componentType": 5125,
      "count": 4884,
      "type": "SCALAR"
    },
    {
      "bufferView": 2,
      "byteOffset": 387792,
      "componentType": 5126,
      "count": 1032,
      "max": [
        32.533512115478516,
        134.1717071533203,
        33.263671875
      ],
      "min": [
        -32.5335578918457,
        102.99579620361328,
        -33.630950927734375
      ],
      "type": "VEC3"
    },
    {
      "bufferView": 2,
      "byteOffset": 400176,
      "componentType": 5126,
      "count": 1032,
      "max": [
        0.9999915957450867,
        1.0,
        0.9974785447120667
      ],
      "min": [
        -0.9999915957450867,
        -0.8604657053947449,
        -0.9973048567771912
      ],
      "type": "VEC3"
    },
    {
      "bufferView": 1,
      "byteOffset": 129264,
      "componentType": 5126,
      "count": 1032,
      "max": [
        1.0,
        1.0
      ],
      "min": [
        0.0,
        0.0
      ],
      "type": "VEC2"
    },
    {
      "bufferView": 0,
      "byteOffset": 215496,
      "componentType": 5125,
      "count": 1767,
      "type": "SCALAR"
    },
    {
      "bufferView": 2,
      "byteOffset": 412560,
      "componentType": 5126,
      "count": 144,
      "max": [
        17.822429656982422,
        120.81822967529297,
        17.822429656982422
      ],
      "min": [
        -17.822431564331055,
        102.99579620361328,
        -17.822429656982422
      ],
      "type": "VEC3"
    },
    {
      "bufferView": 2,
      "byteOffset": 414288,
      "componentType": 5126,
      "count": 144,
      "max": [
        0.9951847195625305,
        1.0,
        0.9951848387718201
      ],
      "min": [
        -0.9951847195625305,
        0.09801682084798813,
        -0.9951847195625305
      ],
      "type": "VEC3"
    },
    {
      "bufferView": 1,
      "byteOffset": 137520,
      "componentType": 5126,
      "count": 144,
      "max": [
        1.0,
        1.0
      ],
      "min": [
        0.0,
        0.5
      ],
      "type": "VEC2"
    },
    {
      "bufferView": 0,
      "byteOffset": 222564,
      "componentType": 5125,
      "count": 720,
      "type": "SCALAR"
    },
    {
      "bufferView": 2,
      "byteOffset": 416016,
      "componentType": 5126,
      "count": 10250,
      "max": [
        22.243497848510742,
        22.083864212036133,
        60.40046691894531
      ],
      "min": [
        -22.243497848510742,
        -22.083864212036133,
        -60.40046691894531
      ],
      "type": "VEC3"
    },
    {
      "bufferView": 2,
      "byteOffset": 539016,
      "componentType": 5126,
      "count": 10250,
      "max": [
        0.9999780654907227,
        0.9999716281890869,
        1.0
      ],
      "min": [
        -0.9999778270721436,
        -0.9999852180480957,
        -1.0
      ],
      "type": "VEC3"
    },
    {
      "bufferView": 3,
      "byteOffset": 245024,
      "componentType": 5126,
      "count": 10250,
      "max": [
        0.999992847442627,
        0.9999462962150574,
        1.0,
        1.0
      ],
      "min": [
        -0.999992847442627,
        -0.9999939799308777,
        -1.0,
        -1.0
      ],
      "type": "VEC4"
    },
    {
      "bufferView": 1,
      "byteOffset": 138672,
      "componentType": 5126,
      "count": 10250,
      "max": [
        0.997759997844696,
        0.9340599775314331
      ],
      "min": [
        0.012536000460386276,
        0.25601500272750854
      ],
      "type": "VEC2"
    },
    {
      "bufferView": 0,
      "byteOffset": 225444,
      "componentType": 5125,
      "count": 39030,
      "type": "SCALAR"
    },
    {
      "bufferView": 2,
      "byteOffset": 662016,
      "componentType": 5126,
      "count": 10108,
      "max": [
        22.243499755859375,
        22.083864212036133,
        60.40046691894531
      ],
      "min": [
        -22.243499755859375,
        -22.083864212036133,
        -60.40046691894531
      ],
      "type": "VEC3"
    },
    {
      "bufferView": 2,
      "byteOffset": 783312,
      "componentType": 5126,
      "count": 10108,
      "max": [
        0.9999778866767883,
        0.9999716281890869,
        1.0
      ],
      "min": [
        -0.9999780654907227,
        -0.9999852180480957,
        -1.0
      ],
      "type": "VEC3"
    },
    {
      "bufferView": 3,
      "byteOffset": 409024,
      "componentType": 5126,
      "count": 10108,
      "max": [
        0.9999927878379822,
        0.9999939799308777,
        1.0,
        1.0
      ],
      "min": [
        -0.9999927878379822,
        -0.9999644756317139,
        -1.0,
        -1.0
      ],
      "type": "VEC4"
    },
    {
      "bufferView": 1,
      "byteOffset": 220672,
      "componentType": 5126,
      "count": 10108,
      "max": [
        0.997759997844696,
        0.9340599775314331
      ],
      "min": [
        0.012536000460386276,
        0.25601500272750854
      ],
      "type": "VEC2"
    },
    {
      "bufferView": 0,
      "byteOffset": 381564,
      "componentType": 5125,
      "count": 38718,
      "type": "SCALAR"
    },
    {
      "bufferView": 4,
      "componentType": 5126,
      "count": 57,
      "max": [
        1.75
      ],
      "min": [
        0.02500000037252903
      ],
      "type": "SCALAR"
    },
    {
      "bufferView": 5,
      "componentType": 5126,
      "count": 57,
      "max": [
        0.0,
        0.0,
        0.0
      ],
      "min": [
        0.0,
        -1.0653616189956665,
        0.0
      ],
      "type": "VEC3"
    },
    {
      "bufferView": 4,
      "byteOffset": 228,
      "componentType": 5126,
      "count": 57,
      "max": [
        1.75
      ],
      "min": [
        0.02500000037252903
      ],
      "type": "SCALAR"
    },
    {
      "bufferView": 6,
      "componentType": 5126,
      "count": 57,
      "max": [
        0.0,
        0.0,
        1.0,
        1.0
      ],
      "min": [
        0.0,
        0.0,
        -0.8433914184570313,
        -0.4873516857624054
      ],
      "type": "VEC4"
    },
    {
      "bufferView": 4,
      "byteOffset": 456,
      "componentType": 5126,
      "count": 57,
      "max": [
        1.75
      ],
      "min": [
        0.02500000037252903
      ],
      "type": "SCALAR"
    },
    {
      "bufferView": 6,
      "byteOffset": 912,
      "componentType": 5126,
      "count": 57,
      "max": [
        0.0,
        0.0,
        1.0,
        1.0
      ],
      "min": [
        0.0,
        0.0,
        -0.8433914184570313,
        -0.4873516857624054
      ],
      "type": "VEC4"
    }
  ],
  "animations": [
    {
      "channels": [
        {
          "sampler": 0,
          "target": {
            "node": 5,
            "path": "translation"
          }
        },
        {
          "sampler": 1,
          "target": {
            "node": 11,
            "path": "rotation"
          }
        },
        {
          "sampler": 2,
          "target": {
            "node": 13,
            "path": "rotation"
          }
        }
      ],
      "name": "chill",
      "samplers": [
        {
          "input": 32,
          "interpolation": "LINEAR",
          "output": 33
        },
        {
          "input": 34,
          "interpolation": "LINEAR",
          "output": 35
        },
        {
          "input": 36,
          "interpolation": "LINEAR",
          "output": 37
        }
      ]
    }
  ],
  "asset": {
    "extras": {
      "author": "Fleeting Giraffa (https://sketchfab.com/YanaJo)",
      "license": "CC-BY-4.0 (http://creativecommons.org/licenses/by/4.0/)",
      "source": "https://sketchfab.com/3d-models/thermal-ex-from-arknights-02986155f515462ab2507bb4ac9563e7",
      "title": "Thermal-EX (from Arknights)"
    },
    "generator": "Sketchfab-12.67.0",
    "version": "2.0"
  },
  "bufferViews": [
    {
      "buffer": 0,
      "byteLength": 536436,
      "name": "floatBufferViews",
      "target": 34963
    },
    {
      "buffer": 0,
      "byteLength": 301536,
      "byteOffset": 536436,
      "byteStride": 8,
      "name": "floatBufferViews",
      "target": 34962
    },
    {
      "buffer": 0,
      "byteLength": 904608,
      "byteOffset": 837972,
      "byteStride": 12,
      "name": "floatBufferViews",
      "target": 34962
    },
    {
      "buffer": 0,
      "byteLength": 570752,
      "byteOffset": 1742580,
      "byteStride": 16,
      "name": "floatBufferViews",
      "target": 34962
    },
    {
      "buffer": 0,
      "byteLength": 684,
      "byteOffset": 2313332,
      "name": "floatBufferViews"
    },
    {
      "buffer": 0,
      "byteLength": 684,
      "byteOffset": 2314016,
      "byteStride": 12,
      "name": "floatBufferViews"
    },
    {
      "buffer": 0,
      "byteLength": 1824,
      "byteOffset": 2314700,
      "byteStride": 16,
      "name": "floatBufferViews"
    }
  ],
  "buffers": [
    {
      "byteLength": 2316524,
      "uri": "scene.bin"
    }
  ],
  "extensionsUsed": [
    "KHR_materials_transmission"
  ],
  "images": [
    {
      "uri": "textures/material_baseColor.jpeg"
    },
    {
      "uri": "textures/material_metallicRoughness.png"
    },
    {
      "uri": "textures/material_normal.png"
    },
    {
      "uri": "textures/down_baseColor.jpeg"
    },
    {
      "uri": "textures/down_metallicRoughness.png"
    },
    {
      "uri": "textures/down_normal.png"
    }
  ],
  "materials": [
    {
      "doubleSided": true,
      "name": "material",
      "normalTexture": {
        "index": 2
      },
      "occlusionTexture": {
        "index": 1
      },
      "pbrMetallicRoughness": {
        "baseColorTexture": {
          "index": 0
        },
        "metallicRoughnessTexture": {
          "index": 1
        }
      }
    },
    {
      "doubleSided": true,
      "name": "down",
      "normalTexture": {
        "index": 5
      },
      "occlusionTexture": {
        "index": 4
      },
      "pbrMetallicRoughness": {
        "baseColorTexture": {
          "index": 3
        },
        "metallicRoughnessTexture": {
          "index": 4
        }
      }
    },
    {
      "doubleSided": true,
      "name": "wires1",
      "pbrMetallicRoughness": {
        "baseColorFactor": [
          0.001712375681525524,
          0.001644183729606366,
          0.001644183729606366,
          1.0
        ],
        "metallicFactor": 0.0,
        "roughnessFactor": 0.6887696161586683
      }
    },
    {
      "alphaMode": "BLEND",
      "doubleSided": true,
      "extensions": {
        "KHR_materials_transmission": {
          "transmissionFactor": 0.15314588159470777
        }
      },
      "name": "glass",
      "pbrMetallicRoughness": {
        "baseColorFactor": [
          0.02626421515703057,
          0.007995339266944493,
          0.0009468426686308787,
          0.8468541184052922
        ],
        "metallicFactor": 0.0,
        "roughnessFactor": 0.317879053195435
      }
    },
    {
      "doubleSided": true,
      "emissiveFactor": [
        1.0,
        1.0,
        0.03818892235288779
      ],
      "name": "core",
      "pbrMetallicRoughness": {
        "baseColorFactor": [
          0.6429188620074417,
          0.3646470889873599,
          0.0017022359350515892,
          1.0
        ],
        "metallicFactor": 0.0,
        "roughnessFactor": 0.0
      }
    }
  ],
  "meshes": [
    {
      "name": "polySurface77_up_0",
      "primitives": [
        {
          "attributes": {
            "NORMAL": 1,
            "POSITION": 0,
            "TANGENT": 2,
            "TEXCOORD_0": 3
          },
          "indices": 4,
          "material": 0,
          "mode": 4
        }
      ]
    },
    {
      "name": "polySurface77_down_0",
      "primitives": [
        {
          "attributes": {
            "NORMAL": 6,
            "POSITION": 5,
            "TANGENT": 7,
            "TEXCOORD_0": 8
          },
          "indices": 9,
          "material": 1,
          "mode": 4
        }
      ]
    },
    {
      "name": "polySurface77_wires1_0",
      "primitives": [
        {
          "attributes": {
            "NORMAL": 11,
            "POSITION": 10,
            "TEXCOORD_0": 12
          },
          "indices": 13,
          "material": 2,
          "mode": 4
        }
      ]
    },
    {
      "name": "polySurface77_glass_0",
      "primitives": [
        {
          "attributes": {
            "NORMAL": 15,
            "POSITION": 14,
            "TEXCOORD_0": 16
          },
          "indices": 17,
          "material": 3,
          "mode": 4
        }
      ]
    },
    {
      "name": "polySurface77_core_0",
      "primitives": [
        {
          "attributes": {
            "NORMAL": 19,
            "POSITION": 18,
            "TEXCOORD_0": 20
          },
          "indices": 21,
          "material": 4,
          "mode": 4
        }
      ]
    },
    {
      "name": "polySurface76_down_0",
      "primitives": [
        {
          "attributes": {
            "NORMAL": 23,
            "POSITION": 22,
            "TANGENT": 24,
            "TEXCOORD_0": 25
          },
          "indices": 26,
          "material": 1,
          "mode": 4
        }
      ]
    },
    {
      "name": "polySurface11_down_0",
      "primitives": [
        {
          "attributes": {
            "NORMAL": 28,
            "POSITION": 27,
            "TANGENT": 29,
            "TEXCOORD_0": 30
          },
          "indices": 31,
          "material": 1,
          "mode": 4
        }
      ]
    }
  ],
  "nodes": [
    {
      "children": [
        1
      ],
      "matrix": [
        0.009981667622923851,
        0.0,
        0.0,
        0.0,
        0.0,
        2.216375443825103e-18,
        -0.009981667622923851,
        0.0,
        0.0,
        0.009981667622923851,
        2.216375443825103e-18,
        0.0,
        0.0,
        0.0,
        0.0,
        1.0
      ],
      "name": "Sketchfab_model"
    },
    {
      "children": [
        2
      ],
      "matrix": [
        1.0,
        0.0,
        0.0,
        0.0,
        0.0,
        0.0,
        1.0,
        0.0,
        0.0,
        -1.0,
        0.0,
        0.0,
        0.0,
        0.0,
        0.0,
        1.0
      ],
      "name": "THRM-EX.fbx"
    },
    {
      "children": [
        3
      ],
      "name": "Object_2"
    },
    {
      "children": [
        4,
        11,
        13
      ],
      "name": "RootNode"
    },
    {
      "children": [
        5
      ],
      "name": "THRM_EX1:polySurface1_THRM_EX1:polySurface1Shape"
    },
    {
      "children": [
        6,
        7,
        8,
        9,
        10
      ],
      "name": "polySurface77",
      "rotation": [
        0.0,
        -0.0,
        -0.009296899661421776,
        0.9999567866325378
      ]
    },
    {
      "mesh": 0,
      "name": "polySurface77_up_0"
    },
    {
      "mesh": 1,
      "name": "polySurface77_down_0"
    },
    {
      "mesh": 2,
      "name": "polySurface77_wires1_0"
    },
    {
      "mesh": 3,
      "name": "polySurface77_glass_0"
    },
    {
      "mesh": 4,
      "name": "polySurface77_core_0"
    },
    {
      "children": [
        12
      ],
      "name": "polySurface76",
      "translation": [
        28.803987503051758,
        27.31181526184082,
        0.0
      ]
    },
    {
      "mesh": 5,
      "name": "polySurface76_down_0"
    },
    {
      "children": [
        14
      ],
      "name": "polySurface11",
      "translation": [
        -39.99457550048828,
        27.31181526184082,
        0.0
      ]
    },
    {
      "mesh": 6,
      "name": "polySurface11_down_0"
    }
  ],
  "samplers": [
    {
      "magFilter": 9729,
      "minFilter": 9987,
      "wrapS": 10497,
      "wrapT": 10497
    }
  ],
  "scene": 0,
  "scenes": [
    {
      "name": "Sketchfab_Scene",
      "nodes": [
        0
      ]
    }
  ],
  "textures": [
    {
      "sampler": 0,
      "source": 0
    },
    {
      "sampler": 0,
      "source": 1
    },
    {
      "sampler": 0,
      "source": 2
    },
    {
      "sampler": 0,
      "source": 3
    },
    {
      "sampler": 0,
      "source": 4
    },
    {
      "sampler": 0,
      "source": 5
    }
  ]
}
